<svg width="37" height="37" viewBox="0 0 37 37" fill="none" xmlns="http://www.w3.org/2000/svg">
<path d="M0 18.5C0 28.7173 8.28273 37 18.5 37C28.7173 37 37 28.7173 37 18.5C37 8.28273 28.7173 0 18.5 0C8.28273 0 0 8.28273 0 18.5Z" fill="white"/>
<path d="M18.5 9.25C13.4125 9.25 9.25 13.4125 9.25 18.5C9.25 22.3156 11.5625 25.5531 14.8 26.9406C14.8 26.2469 14.8 25.5531 14.9156 24.8594C15.1469 24.05 16.0719 19.7719 16.0719 19.7719C16.0719 19.7719 15.725 19.1938 15.725 18.2688C15.725 16.8813 16.5344 15.8406 17.4594 15.8406C18.2688 15.8406 18.7312 16.4187 18.7312 17.2281C18.7312 18.0375 18.1531 19.3094 17.9219 20.4656C17.6906 21.3906 18.3844 22.2 19.425 22.2C21.1594 22.2 22.3156 20.0031 22.3156 17.2281C22.3156 15.1469 20.9281 13.6438 18.5 13.6438C15.725 13.6438 13.9906 15.725 13.9906 18.0375C13.9906 18.8469 14.2219 19.425 14.5688 19.8875C14.6844 20.1188 14.8 20.1188 14.6844 20.35C14.6844 20.4656 14.5687 20.9281 14.4531 21.0438C14.3375 21.275 14.2219 21.3906 13.9906 21.275C12.7188 20.6969 12.1406 19.3094 12.1406 17.6906C12.1406 15.0312 14.3375 11.9094 18.7312 11.9094C22.3156 11.9094 24.6281 14.4531 24.6281 17.2281C24.6281 20.8125 22.6625 23.5875 19.6562 23.5875C18.6156 23.5875 17.6906 23.0094 17.3438 22.4312C17.3438 22.4312 16.7656 24.5125 16.65 24.975C16.4187 25.6688 16.0719 26.3625 15.725 26.9406C16.5344 27.1719 17.4594 27.2875 18.3844 27.2875C23.4719 27.2875 27.6344 23.125 27.6344 18.0375C27.75 13.4125 23.5875 9.25 18.5 9.25Z" fill="black"/>
</svg>
