<svg width="71" height="71" viewBox="0 0 71 71" fill="none" xmlns="http://www.w3.org/2000/svg">
<path fill-rule="evenodd" clip-rule="evenodd" d="M52.9289 35.9034C52.9289 34.6448 52.8176 33.4345 52.6108 32.2727H36.1289V39.1387H45.5471C45.1414 41.3575 43.9085 43.2374 42.0551 44.496V48.9497H47.7107C51.0198 45.8596 52.9289 41.3091 52.9289 35.9034Z" fill="white"/>
<path fill-rule="evenodd" clip-rule="evenodd" d="M36.1289 53.25C40.8539 53.25 44.8153 51.6605 47.7107 48.9496L42.0551 44.496C40.488 45.561 38.4835 46.1903 36.1289 46.1903C31.5709 46.1903 27.713 43.0679 26.3368 38.8724H20.4902V43.4713C23.3698 49.2723 29.288 53.25 36.1289 53.25Z" fill="white"/>
<path fill-rule="evenodd" clip-rule="evenodd" d="M26.3369 38.8725C25.9869 37.8074 25.788 36.6698 25.788 35.4999C25.788 34.3301 25.9869 33.1924 26.3369 32.1274V27.5286H20.4903C19.305 29.9248 18.6289 32.6357 18.6289 35.4999C18.6289 38.3642 19.305 41.0751 20.4903 43.4713L26.3369 38.8725Z" fill="white"/>
<path fill-rule="evenodd" clip-rule="evenodd" d="M36.1289 24.8097C38.6982 24.8097 41.0051 25.7052 42.8187 27.4641L47.838 22.3731C44.8073 19.5089 40.846 17.75 36.1289 17.75C29.288 17.75 23.3698 21.7276 20.4902 27.5287L26.3368 32.1275C27.713 27.9321 31.5709 24.8097 36.1289 24.8097Z" fill="white"/>
</svg>
