<svg width="70" height="71" viewBox="0 0 70 71" fill="none" xmlns="http://www.w3.org/2000/svg">
<path d="M35 20.4125C39.8125 20.4125 40.4688 20.4125 42.4375 20.4125C44.1875 20.4125 45.0625 20.8562 45.7188 21.0781C46.5937 21.5219 47.25 21.7437 47.9062 22.4094C48.5625 23.075 49 23.7406 49.2188 24.6281C49.4375 25.2937 49.6562 26.1812 49.875 27.9562C49.875 29.9531 49.875 30.3969 49.875 35.5C49.875 40.6031 49.875 41.0469 49.875 43.0437C49.875 44.8187 49.4375 45.7062 49.2188 46.3719C48.7812 47.2593 48.5625 47.925 47.9062 48.5906C47.25 49.2562 46.5937 49.7 45.7188 49.9219C45.0625 50.1437 44.1875 50.3656 42.4375 50.5875C40.4688 50.5875 40.0312 50.5875 35 50.5875C29.9688 50.5875 29.5313 50.5875 27.5625 50.5875C25.8125 50.5875 24.9375 50.1437 24.2813 49.9219C23.4063 49.4781 22.75 49.2562 22.0938 48.5906C21.4375 47.925 21 47.2593 20.7813 46.3719C20.5625 45.7062 20.3438 44.8187 20.125 43.0437C20.125 41.0469 20.125 40.6031 20.125 35.5C20.125 30.3969 20.125 29.9531 20.125 27.9562C20.125 26.1812 20.5625 25.2937 20.7813 24.6281C21.2188 23.7406 21.4375 23.075 22.0938 22.4094C22.75 21.7437 23.4063 21.3 24.2813 21.0781C24.9375 20.8562 25.8125 20.6344 27.5625 20.4125C29.5313 20.4125 30.1875 20.4125 35 20.4125ZM35 17.0844C29.9688 17.0844 29.5313 17.0844 27.5625 17.0844C25.5938 17.0844 24.2813 17.5281 23.1875 17.9719C22.0938 18.4156 21 19.0812 19.9063 20.1906C18.8125 21.3 18.375 22.1875 17.7188 23.5187C17.2813 24.6281 17.0625 25.9594 16.8438 27.9562C16.8438 29.9531 16.8438 30.6187 16.8438 35.5C16.8438 40.6031 16.8438 41.0469 16.8438 43.0437C16.8438 45.0406 17.2813 46.3719 17.7188 47.4812C18.1563 48.5906 18.8125 49.7 19.9063 50.8093C21 51.9187 21.875 52.3625 23.1875 53.0281C24.2813 53.4719 25.5938 53.6937 27.5625 53.9156C29.5313 53.9156 30.1875 53.9156 35 53.9156C39.8125 53.9156 40.4688 53.9156 42.4375 53.9156C44.4062 53.9156 45.7188 53.4719 46.8125 53.0281C47.9062 52.5844 49 51.9187 50.0938 50.8093C51.1875 49.7 51.625 48.8125 52.2812 47.4812C52.7188 46.3719 52.9375 45.0406 53.1562 43.0437C53.1562 41.0469 53.1562 40.3812 53.1562 35.5C53.1562 30.6187 53.1562 29.9531 53.1562 27.9562C53.1562 25.9594 52.7188 24.6281 52.2812 23.5187C51.8438 22.4094 51.1875 21.3 50.0938 20.1906C49 19.0812 48.125 18.6375 46.8125 17.9719C45.7188 17.5281 44.4062 17.3062 42.4375 17.0844C40.4688 17.0844 40.0312 17.0844 35 17.0844Z" fill="white"/>
<path d="M35 25.9594C29.75 25.9594 25.5938 30.175 25.5938 35.5C25.5938 40.825 29.75 45.0406 35 45.0406C40.25 45.0406 44.4062 40.825 44.4062 35.5C44.4062 30.175 40.25 25.9594 35 25.9594ZM35 41.7125C31.7188 41.7125 28.875 39.05 28.875 35.5C28.875 32.1719 31.5 29.2875 35 29.2875C38.2812 29.2875 41.125 31.95 41.125 35.5C41.125 38.8281 38.2812 41.7125 35 41.7125Z" fill="white"/>
<path d="M44.625 27.9562C45.8331 27.9562 46.8125 26.9629 46.8125 25.7375C46.8125 24.5121 45.8331 23.5187 44.625 23.5187C43.4169 23.5187 42.4375 24.5121 42.4375 25.7375C42.4375 26.9629 43.4169 27.9562 44.625 27.9562Z" fill="white"/>
</svg>
