<svg width="36" height="35" viewBox="0 0 36 35" fill="none" xmlns="http://www.w3.org/2000/svg">
<path d="M18.4738 0.0295313C20.3824 0 22.28 0.0175 24.1755 0C24.2903 2.23234 25.0931 4.50625 26.7272 6.08453C28.358 7.70219 30.6647 8.44266 32.9091 8.69312V14.5655C30.8058 14.4966 28.6927 14.0591 26.7841 13.1534C25.9528 12.7772 25.1785 12.2927 24.4205 11.7972C24.4106 16.0584 24.438 20.3142 24.3931 24.558C24.2794 26.5967 23.6067 28.6256 22.4211 30.3056C20.5136 33.1023 17.2028 34.9256 13.8024 34.9825C11.7166 35.1017 9.63299 34.533 7.85564 33.4852C4.91017 31.7483 2.83752 28.5688 2.53564 25.1562C2.49762 24.4335 2.49178 23.7095 2.51814 22.9862C2.78064 20.2114 4.1533 17.5569 6.28392 15.7511C8.69892 13.6478 12.0819 12.6459 15.2494 13.2388C15.2789 15.3989 15.1925 17.5569 15.1925 19.717C13.7455 19.2489 12.0545 19.3802 10.7902 20.2584C9.86513 20.8678 9.16606 21.7644 8.80064 22.8102C8.49877 23.5495 8.58517 24.3709 8.60267 25.1562C8.94939 27.5494 11.2506 29.5608 13.7072 29.3431C15.3358 29.3256 16.8966 28.3806 17.7453 26.997C18.0199 26.5125 18.3272 26.017 18.3436 25.4472C18.4869 22.8386 18.43 20.2409 18.4475 17.6323C18.4595 11.7534 18.43 5.89094 18.4749 0.030625L18.4738 0.0295313Z" fill="white"/>
</svg>
