<svg width="71" height="71" viewBox="0 0 71 71" fill="none" xmlns="http://www.w3.org/2000/svg">
<path d="M52.2246 26.8468C51.7871 25.2937 50.6934 24.1843 49.1621 23.7406C46.5371 23.075 35.3808 23.075 35.3808 23.075C35.3808 23.075 24.4434 23.075 21.5996 23.7406C20.0684 24.1843 18.9746 25.2937 18.5371 26.8468C18.0996 29.7312 18.0996 35.5 18.0996 35.5C18.0996 35.5 18.0996 41.2687 18.7559 44.1531C19.1934 45.7062 20.2871 46.8156 21.8184 47.2593C24.4434 47.9249 35.5996 47.925 35.5996 47.925C35.5996 47.925 46.5371 47.9249 49.3808 47.2593C50.9121 46.8156 52.0059 45.7062 52.4434 44.1531C53.0996 41.2687 53.0996 35.5 53.0996 35.5C53.0996 35.5 53.0996 29.7312 52.2246 26.8468ZM32.0996 40.825V30.175L41.2871 35.5L32.0996 40.825Z" fill="white"/>
</svg>
